<?xml version="1.0" standalone="no"?>
<!DOCTYPE svg PUBLIC "-//W3C//DTD SVG 20010904//EN"
 "http://www.w3.org/TR/2001/REC-SVG-20010904/DTD/svg10.dtd">
<svg version="1.0" xmlns="http://www.w3.org/2000/svg"
 width="1024.000000pt" height="1024.000000pt" viewBox="0 0 1024.000000 1024.000000"
 preserveAspectRatio="xMidYMid meet">
<metadata>
Created by potrace 1.16, written by Peter Selinger 2001-2019
</metadata>
<g transform="translate(0.000000,1024.000000) scale(0.100000,-0.100000)"
fill="#000000" stroke="none">
<path d="M4856 7909 c-38 -5 -99 -18 -134 -29 -35 -11 -71 -20 -79 -20 -13 0
-132 -57 -216 -102 -66 -36 -178 -113 -169 -116 5 -1 48 7 94 19 176 45 268
60 268 44 0 -3 -11 -23 -25 -44 -17 -27 -36 -43 -62 -51 -21 -7 -54 -22 -73
-34 -19 -12 -60 -34 -90 -49 -30 -16 -75 -43 -100 -62 -25 -19 -71 -53 -102
-75 -101 -71 -184 -148 -218 -200 -18 -28 -30 -53 -27 -56 3 -3 20 8 39 24 41
37 113 87 198 136 36 21 75 47 87 58 25 23 56 21 61 -5 2 -9 -17 -48 -42 -86
-25 -38 -49 -84 -52 -102 -15 -89 -54 -152 -156 -252 -33 -32 -58 -63 -55 -70
2 -8 27 -12 68 -12 49 0 78 7 124 29 116 54 204 102 228 123 21 19 21 20 1
-85 -20 -108 -43 -160 -86 -198 -37 -32 -82 -43 -263 -64 -96 -11 -242 -57
-455 -145 -185 -77 -227 -85 -436 -84 -166 0 -186 -2 -233 -21 -45 -20 -52
-28 -70 -74 -11 -28 -29 -69 -40 -91 -18 -33 -21 -56 -20 -145 0 -58 4 -127 7
-154 6 -43 11 -51 33 -57 15 -3 41 -20 59 -35 42 -38 54 -37 58 6 1 19 8 47
14 63 9 23 16 27 50 27 23 0 46 -7 58 -17 19 -18 70 -182 70 -226 0 -13 19
-45 44 -75 l44 -52 -2 -92 c-3 -81 -8 -106 -44 -198 -22 -58 -43 -112 -45
-120 -9 -29 -82 -70 -135 -77 -48 -5 -52 -8 -52 -32 0 -14 -3 -43 -6 -63 -5
-31 -4 -38 10 -38 20 0 163 50 236 83 102 45 107 45 233 -17 63 -31 133 -62
157 -69 l44 -13 -49 -30 c-28 -17 -75 -52 -105 -78 -30 -26 -75 -59 -100 -74
-25 -14 -46 -30 -48 -33 -2 -4 -49 -48 -105 -97 -56 -49 -129 -118 -162 -152
-33 -35 -86 -90 -118 -123 -32 -33 -65 -73 -73 -89 -8 -15 -16 -28 -17 -28 -2
0 -35 16 -74 35 -109 54 -185 68 -338 62 -107 -3 -140 -8 -185 -27 -115 -50
-197 -116 -251 -205 -18 -30 -37 -55 -41 -55 -4 0 -17 13 -29 30 -34 46 -47
45 -103 -7 -41 -39 -51 -54 -52 -82 0 -26 -6 -36 -22 -42 -12 -5 -22 -6 -22
-2 0 3 -7 0 -15 -7 -17 -14 -21 -50 -5 -50 5 0 20 -10 33 -22 13 -13 50 -41
82 -63 32 -22 73 -53 91 -70 18 -16 43 -37 56 -46 l22 -16 -27 -42 c-42 -63
-152 -203 -181 -230 -14 -14 -26 -29 -26 -35 0 -6 -19 -31 -43 -56 -23 -25
-68 -77 -99 -116 l-56 -71 58 -61 c32 -34 63 -62 67 -62 10 0 72 64 94 97 8
12 73 97 144 190 72 92 146 192 165 220 19 29 38 53 42 53 3 0 24 -15 46 -32
65 -54 194 -152 224 -170 15 -10 28 -24 28 -31 0 -7 -27 -48 -60 -91 -33 -43
-60 -83 -60 -88 0 -5 -15 -24 -33 -41 -18 -18 -88 -100 -155 -184 l-122 -152
60 -60 c33 -34 64 -61 69 -61 5 0 12 11 15 24 3 13 42 62 85 109 44 47 91 103
104 124 28 43 164 204 183 216 7 4 23 25 35 47 26 46 37 49 76 17 15 -13 61
-45 102 -72 40 -28 82 -62 93 -77 11 -16 23 -28 27 -28 4 0 21 19 38 43 17 23
43 54 57 69 33 32 43 86 26 137 -12 38 -12 38 43 110 77 99 109 188 122 341
13 138 -24 261 -102 342 l-46 46 23 38 c32 51 141 178 182 211 18 15 65 56
103 91 39 36 97 85 130 110 33 26 65 51 71 57 6 5 37 28 69 50 32 22 67 50 79
61 11 12 39 30 61 41 88 44 127 68 136 85 5 10 21 18 34 18 14 0 25 5 25 10 0
12 32 13 45 2 6 -5 31 -16 57 -26 26 -9 66 -32 90 -50 24 -18 80 -55 126 -82
46 -27 100 -59 120 -71 66 -40 125 -64 236 -95 132 -37 200 -35 289 7 114 55
138 99 206 385 41 171 83 260 155 328 30 29 62 52 71 52 39 0 77 -33 103 -88
26 -56 27 -61 26 -252 -1 -203 -9 -267 -65 -475 -40 -148 -118 -365 -206 -573
l-36 -83 -56 7 c-68 7 -240 -12 -284 -32 -91 -42 -154 -84 -172 -111 -69 -108
-87 -141 -109 -206 -47 -139 -44 -267 9 -287 12 -5 317 -11 676 -15 1035 -10
1012 -9 1099 -38 114 -37 179 -55 287 -78 54 -11 107 -22 118 -25 11 -2 81 -9
155 -15 74 -6 145 -16 157 -22 61 -28 605 30 733 79 19 7 67 22 107 34 69 20
92 21 478 18 383 -3 405 -2 405 15 0 38 -17 65 -209 328 l-75 102 23 41 c71
126 90 179 132 356 40 171 32 485 -16 655 -8 28 -23 87 -35 132 -23 96 -83
276 -115 348 -12 28 -54 108 -94 179 -39 71 -71 133 -71 137 0 11 -204 281
-289 383 -39 46 -92 102 -118 123 -27 21 -80 70 -119 108 -78 79 -171 153
-224 180 -19 9 -44 25 -55 35 -11 9 -67 46 -125 81 -168 102 -156 90 -140 151
50 193 -49 429 -254 604 -76 65 -174 129 -258 171 -26 12 -55 35 -65 50 -101
159 -216 219 -613 317 -129 32 -203 57 -280 94 -180 85 -439 163 -618 187
-124 16 -172 17 -276 4z m344 -74 c133 -30 228 -57 310 -88 112 -43 154 -56
193 -62 21 -3 35 -10 32 -15 -22 -36 -76 -553 -77 -745 -1 -157 31 -443 59
-532 20 -64 68 -122 164 -199 78 -62 117 -114 149 -199 19 -53 22 -78 21 -208
-1 -166 -21 -274 -86 -452 -19 -54 -35 -105 -35 -114 0 -11 19 -26 53 -42 28
-13 54 -27 55 -31 2 -5 8 -8 13 -8 40 0 264 -187 336 -282 67 -87 127 -158
130 -154 6 5 44 144 64 236 20 88 49 261 68 412 18 140 95 345 173 460 53 77
202 271 246 319 l47 51 80 -53 c339 -223 610 -486 810 -786 30 -45 55 -84 55
-86 0 -3 25 -49 56 -103 83 -147 162 -338 183 -446 11 -51 28 -138 40 -193 31
-151 37 -298 16 -430 -36 -232 -75 -328 -184 -447 -190 -207 -410 -306 -781
-354 -272 -34 -606 1 -891 93 -63 20 -77 28 -72 41 4 9 38 71 77 137 39 66 89
158 110 205 21 47 44 92 51 100 31 38 26 48 -48 95 -40 25 -75 46 -78 48 -6 2
-111 -138 -120 -160 -2 -5 -35 -62 -74 -126 -38 -65 -78 -135 -89 -155 -10
-20 -24 -44 -31 -52 -7 -8 -38 -64 -68 -125 -31 -60 -62 -118 -70 -129 -13
-17 -41 -18 -770 -11 l-757 8 -6 21 c-7 31 21 157 53 240 29 73 81 134 163
191 54 38 182 59 310 51 l106 -6 49 107 c26 60 62 142 78 183 48 123 147 422
147 444 1 12 7 39 15 61 8 22 24 108 36 190 31 222 17 439 -36 530 -30 51 -61
79 -106 95 -34 12 -41 11 -90 -14 -75 -39 -103 -68 -147 -155 -59 -114 -77
-182 -112 -426 -18 -119 -51 -174 -132 -216 -73 -38 -121 -41 -231 -18 -126
26 -225 72 -449 207 -45 28 -102 58 -125 67 -24 10 -43 20 -43 24 0 13 -50 31
-86 31 -22 0 -48 9 -67 24 -18 13 -57 31 -87 40 -80 24 -360 166 -395 202 -43
43 -55 93 -55 237 0 100 -3 129 -16 141 -14 14 -13 18 5 38 12 12 21 25 21 29
0 4 11 9 23 13 13 3 36 15 50 27 32 25 35 59 9 111 -20 39 -18 50 24 101 13
15 29 46 35 67 14 46 23 48 113 24 84 -23 99 -40 104 -114 5 -66 14 -77 58
-66 19 5 33 23 57 74 29 62 32 75 32 177 0 99 -3 118 -29 184 -24 58 -40 81
-80 115 -82 68 -144 104 -203 117 l-55 13 79 26 c149 51 288 100 333 116 25 9
83 23 130 30 180 28 214 36 269 63 95 48 137 113 172 268 13 57 29 103 35 103
13 0 24 45 24 97 0 46 -21 39 -36 -12 -8 -31 -17 -41 -45 -51 -19 -6 -66 -32
-106 -56 -40 -25 -99 -55 -132 -67 -33 -12 -63 -26 -66 -31 -4 -6 -11 -10 -16
-10 -6 0 12 22 40 48 46 44 101 137 101 170 0 41 35 83 106 127 82 52 114 95
135 180 6 28 18 60 26 73 8 13 21 42 29 64 8 23 34 72 59 109 25 38 45 72 45
76 0 26 107 100 165 114 70 17 248 9 355 -16z m3295 -4421 c16 -22 46 -56 67
-77 37 -38 101 -128 95 -133 -5 -5 -457 15 -500 22 l-38 6 88 60 c49 33 119
92 156 131 77 81 62 82 132 -9z"/>
<path d="M4923 7618 c-6 -7 -18 -34 -28 -61 -34 -91 2 -190 112 -303 64 -65
153 -177 153 -192 0 -17 -53 -31 -165 -42 -60 -6 -135 -16 -165 -21 -63 -12
-170 -48 -170 -58 0 -11 78 -48 128 -61 35 -9 55 -8 105 5 59 16 72 19 123 29
43 9 45 -10 4 -43 -32 -26 -40 -38 -40 -66 0 -19 -4 -37 -10 -40 -5 -3 -10
-15 -10 -26 0 -18 5 -19 53 -13 114 15 137 37 149 137 3 34 9 76 13 92 3 17 8
40 11 53 6 31 16 28 50 -18 29 -40 29 -40 81 -34 69 8 99 0 116 -33 8 -14 17
-22 20 -17 10 17 -20 80 -84 180 -36 54 -73 111 -82 125 -9 15 -39 48 -68 75
-28 27 -69 74 -90 105 -21 31 -44 63 -51 71 -10 10 -109 125 -138 161 -4 4
-11 2 -17 -5z"/>
<path d="M2980 5624 c-19 -13 -42 -39 -51 -57 -20 -39 -33 -127 -19 -127 6 0
10 -13 10 -29 0 -17 5 -33 10 -36 6 -3 10 -19 10 -35 0 -40 29 -110 45 -110
20 0 23 17 18 115 -5 92 -18 155 -33 155 -12 0 7 75 31 114 25 42 24 42 -21
10z"/>

</g>
</svg>
