<?xml version="1.0" encoding="UTF-8" standalone="no"?>
<!-- Created with Inkscape (http://www.inkscape.org/) -->

<svg
   version="1.1"
   id="svg1791"
   width="721.06665"
   height="885.33331"
   viewBox="0 0 721.06665 885.33331"
   sodipodi:docname="bor2c.svg"
   inkscape:version="1.2.2 (732a01da63, 2022-12-09, custom)"
   xmlns:inkscape="http://www.inkscape.org/namespaces/inkscape"
   xmlns:sodipodi="http://sodipodi.sourceforge.net/DTD/sodipodi-0.dtd"
   xmlns="http://www.w3.org/2000/svg"
   xmlns:svg="http://www.w3.org/2000/svg">
  <defs
     id="defs1795" />
  <sodipodi:namedview
     id="namedview1793"
     pagecolor="#ffffff"
     bordercolor="#000000"
     borderopacity="0.25"
     inkscape:showpageshadow="2"
     inkscape:pageopacity="0.0"
     inkscape:pagecheckerboard="0"
     inkscape:deskcolor="#d1d1d1"
     showgrid="false"
     inkscape:zoom="0.93524099"
     inkscape:cx="348.57326"
     inkscape:cy="442.66666"
     inkscape:window-width="1920"
     inkscape:window-height="1031"
     inkscape:window-x="0"
     inkscape:window-y="25"
     inkscape:window-maximized="1"
     inkscape:current-layer="layer1" />
  <g
     inkscape:groupmode="layer"
     id="layer1"
     inkscape:label="Layer 1">
    <path
       style="fill:#cccccc;stroke-width:1.06667"
       d="m 296.94737,868.72619 c 2.53039,-6.59407 9.37369,-50.86386 15.55352,-100.61677 3.42728,-27.5926 3.97621,-37.44277 2.08658,-37.44277 -1.18866,0 -5.68883,4.05869 -26.77531,24.14849 -19.92844,18.9865 -40.62187,33.06033 -63.11304,42.92385 -15.63354,6.85608 -20.36271,7.81283 -41.44524,8.3846 -31.13692,0.84447 -43.95132,-2.14545 -42.02857,-9.8063 0.48075,-1.91548 8.76051,-11.00949 23.15519,-25.43235 12.32377,-12.34789 22.87658,-23.32843 23.45071,-24.40117 0.89245,-1.66759 0.6225,-1.95046 -1.86143,-1.95046 -1.5979,0 -9.17479,1.64824 -16.83753,3.66274 -18.62085,4.89535 -24.02278,5.79661 -42.10887,7.02541 -18.15231,1.23331 -39.916091,-0.0931 -53.211487,-3.24298 -16.982267,-4.02339 -34.623405,-14.49718 -40.786668,-24.21563 -5.569827,-8.78271 -3.595385,-12.27478 7.630773,-13.49607 11.549107,-1.25643 41.464415,-13.30735 46.126452,-18.58133 1.956084,-2.21284 1.934803,-2.27178 -1.6,-4.43192 -1.970348,-1.2041 -8.165449,-3.65513 -13.76689,-5.44673 -26.631775,-8.51815 -45.558985,-24.4864 -51.562914,-43.50194 -5.042685,-15.9711 -9.628116,-53.3682 -6.884963,-56.15125 0.698658,-0.70883 4.081791,0.85953 23.298983,10.80092 23.114439,11.95752 52.346505,17.40503 85.866664,16.00158 57.7273,-2.41695 108.44278,-20.74941 140.52096,-50.79503 17.17531,-16.08705 16.66992,-16.29887 -9.02569,-3.78289 -40.78554,19.8661 -49.40491,22.23638 -80.8286,22.22733 -21.20365,-0.006 -33.09775,-1.56544 -42.00945,-5.50751 -9.31586,-4.12085 -8.19961,-6.00287 8.94278,-15.07753 11.55599,-6.1174 21.31952,-13.52716 33.6,-25.49983 8.40814,-8.19738 12.21383,-13.32905 10.87664,-14.66624 -0.99281,-0.99281 -8.83441,1.35528 -26.25829,7.86282 -16.34844,6.10587 -31.24545,10.04135 -45.80965,12.10193 -11.60118,1.64138 -37.89835,0.68052 -46.542032,-1.70058 -19.268521,-5.30796 -35.733332,-18.66119 -35.733332,-28.98032 0,-4.53402 2.80727,-6.54011 10.722451,-7.66231 11.919637,-1.68995 36.478501,-11.06267 44.629287,-17.03247 3.454824,-2.53039 3.527158,-2.71867 1.6,-4.16472 -1.110123,-0.83299 -8.314938,-4.56305 -16.010701,-8.28902 -16.260354,-7.87261 -24.485973,-14.67533 -32.439121,-26.82768 -9.76113,-14.91494 -13.822733,-30.55808 -13.83096,-53.26957 -0.0046,-12.83731 1.27201,-18.55917 4.140926,-18.55917 0.991753,0 6.584797,2.9253 12.428986,6.50069 14.812751,9.06218 22.889697,12.98765 34.625798,16.8285 21.294305,6.96892 43.227938,10.0135 71.999998,9.99422 30.62461,-0.0205 56.33441,-3.84438 80.87449,-12.02853 27.46897,-9.16094 54.14138,-26.98452 38.55445,-25.76363 -2.32592,0.18217 -8.78894,1.46304 -14.36228,2.84634 -15.40937,3.82464 -23.99891,4.82424 -41.27098,4.80287 -44.0427,-0.0545 -73.02692,-10.64515 -108.27462,-39.5629 -8.165849,-6.69939 -14.721059,-13.92857 -14.721059,-16.23462 0,-1.96504 7.427436,-3.10092 25.741139,-3.93662 10.93096,-0.49881 22.93096,-1.43164 26.66667,-2.07298 7.80364,-1.3397 15.85886,-4.06961 15.85886,-5.37456 0,-1.36376 -6.2465,-4.92551 -14.60037,-8.32514 -23.95445,-9.74833 -46.62837,-33.09017 -53.044416,-54.60697 -4.485109,-15.04122 -6.490856,-39.98542 -3.31325,-41.20478 0.866415,-0.33247 11.096113,3.98889 22.732666,9.60304 36.01733,17.37683 52.87429,21.77926 87.1762,22.76726 27.59802,0.79491 53.10843,-2.30859 72.27319,-8.79248 19.30879,-6.53264 16.44953,-10.1009 -11.06083,-13.80353 -25.55155,-3.43901 -44.00286,-9.70846 -60.7391,-20.63815 -23.28906,-15.20906 -50.72452,-40.46052 -47.47741,-43.69798 0.42295,-0.42168 11.64797,-0.77049 24.94449,-0.77512 22.84595,-0.007 24.87849,-0.17531 36.95836,-3.04283 37.23637,-8.83917 59.81558,-22.09309 88.3283,-51.848402 18.72943,-19.54568 29.22266,-34.590946 45.54505,-65.302788 4.892,-9.204674 9.94988,-18.059283 11.23973,-19.6769096 l 2.34518,-2.9411396 2.99496,4.7435752 c 1.64723,2.608968 7.50164,13.12214 13.0098,23.362606 11.55974,21.491245 16.72169,29.521549 28.48558,44.314303 17.31054,21.767505 41.46176,42.954375 59.80186,52.461725 25.39208,13.16303 62.10505,21.00639 86.07089,18.3882 12.29059,-1.34271 16.24606,-0.92808 17.29799,1.81323 2.44058,6.36004 -24.71811,31.64396 -47.62878,44.34095 -15.78729,8.74925 -29.08044,12.8972 -60.67695,18.93343 -13.34124,2.54872 -19.59894,4.45262 -19.4878,5.92913 0.15256,2.02694 18.57949,10.26167 28.71725,12.83332 15.1884,3.85285 35.24783,5.28099 53.94598,3.84069 36.2101,-2.78922 63.73951,-10.41068 90.54164,-25.06628 14.70078,-8.03847 17.00845,-8.91278 18.26994,-6.92188 2.57397,4.06228 -0.18867,33.50213 -4.22026,44.97271 -5.81209,16.53645 -27.77235,38.33139 -48.16324,47.80065 -13.4947,6.26676 -18.50134,8.97816 -18.92496,10.249 -0.49409,1.48228 6.96314,4.18491 15.6794,5.68245 3.78826,0.65087 15.78826,1.57412 26.66666,2.05167 18.49307,0.81184 25.64557,1.94261 25.64557,4.05446 0,4.07346 -16.8486,19.26766 -34.66667,31.26268 -25.62711,17.25202 -51.042,24.37595 -87.12281,24.42098 -18.14105,0.0226 -27.41379,-1.08746 -45.11709,-5.40129 -13.53271,-3.29757 -17.62676,-3.77429 -17.62676,-2.05252 0,4.74256 45.69367,26.57399 67.02677,32.02391 13.02788,3.32821 23.56963,4.48959 45.54337,5.01751 32.06961,0.77046 53.31894,-1.43065 80.14483,-8.30182 15.90088,-4.07284 27.28841,-8.85706 41.38447,-17.38677 6.4347,-3.89371 12.50965,-7.07948 13.4999,-7.07948 2.68788,0 3.42626,8.09584 2.06881,22.68283 -2.36019,25.36223 -5.55263,36.58002 -14.0078,49.22156 -8.42816,12.60115 -18.1477,20.9521 -32.24139,27.70155 -6.61752,3.16912 -12.6802,6.54324 -13.47262,7.49806 -2.12109,2.55576 0.48956,4.93887 11.82252,10.79212 11.83567,6.11287 19.56625,8.81021 29.16447,10.17599 4.10666,0.58436 9.50666,2.05 12,3.257 7.05235,3.41395 6.37917,5.78727 -4.8,16.92247 -15.04465,14.9855 -27.01535,19.21509 -54.38302,19.21509 -27.80734,0 -42.08248,-3.04553 -69.88597,-14.90983 -26.8364,-11.45161 -29.76438,-11.27034 -20.18279,1.24953 6.71452,8.77358 21.66741,21.62602 33.4735,28.77145 22.0792,13.36305 23.84772,15.25627 17.72799,18.97791 -7.04509,4.28437 -18.00171,5.91093 -39.81638,5.91093 -17.34295,0 -21.8824,-0.35994 -31.46666,-2.49508 -24.02941,-5.35316 -47.01587,-14.68211 -63.4504,-25.75107 -9.99743,-6.73344 -14.41627,-8.97614 -14.41627,-7.3167 0,2.48495 24.05829,24.97101 33.06667,30.90576 32.3426,21.30736 73.98249,34.09384 119.46666,36.68497 35.64559,2.03065 78.56851,-6.91497 100.42569,-20.92984 6.92391,-4.43962 10.185,-5.98068 10.97795,-5.18773 1.68592,1.68592 1.10134,28.44261 -0.90792,41.55636 -4.28569,27.97127 -20.20187,45.13707 -52.36238,56.4735 -12.23017,4.31107 -21.86667,8.6264 -21.86667,9.79212 0,3.24161 25.57863,14.30997 41.6,18.00112 20.20807,4.65571 23.26353,6.75832 19.25235,13.24855 -4.94616,8.00304 -29.72578,21.79052 -47.90871,26.6566 -27.28448,7.3018 -54.14153,5.79665 -91.70768,-5.13958 -13.3477,-3.88578 -19.36929,-4.7327 -19.36929,-2.72424 0,0.60944 10.56,11.84929 23.46666,24.97744 25.29007,25.72408 26.18606,27.08723 20.66075,31.43345 -4.94676,3.89113 -10.64479,4.82082 -29.19408,4.76336 -26.43148,-0.0819 -44.63536,-4.03564 -64.51706,-14.01263 -16.25049,-8.15478 -27.05366,-16.08338 -49.61627,-36.41406 -12.63647,-11.38645 -22.97978,-19.3223 -25.18401,-19.3223 -1.86397,0 -1.85727,1.45211 0.11077,24 3.51061,40.22099 10.22274,91.7432 14.06989,108 l 0.56796,2.4 h -61.02976 c -55.00633,0 -60.96637,-0.1652 -60.38747,-1.67379 z"
       id="path1909" />
    <path
       style="fill:#008080;stroke-width:1.06667"
       d="m 194.4917,790.31188 c 24.20447,-7.45391 39.66291,-15.67502 57.24163,-30.44223 10.52091,-8.83822 34.24555,-32.96788 42.45872,-43.18355 3.11228,-3.87113 7.00568,-8.03428 8.65199,-9.25144 3.0745,-2.27308 27.72108,-30.19951 31.78765,-36.0178 2.26536,-3.24118 17.35836,-13.92915 23.01849,-16.30033 7.14217,-2.99206 13.45961,-0.78783 23.79748,8.3032 8.84004,7.77385 14.19762,14.51314 22.08467,27.78025 15.94856,26.82769 48.78195,61.80289 73.80099,78.61522 22.28535,14.97534 63.46667,29.62137 63.46667,22.57176 0,-1.82306 -5.7819,-9.54837 -15.08331,-20.15312 C 513.96547,758.836 507.43366,749.9002 498.0612,734.39998 486.16936,714.7332 476.94463,693.89979 479.15123,691.69319 c 0.9906,-0.99061 8.52576,3.16074 24.75964,13.64084 26.27991,16.96551 45.32116,25.83328 68.75459,32.01996 11.27793,2.9775 13.94704,3.28018 29.46786,3.3417 22.3895,0.0888 40.50171,-3.6339 45.16438,-9.28273 1.23201,-1.49258 1.03424,-2.10147 -1.42196,-4.3778 -1.56915,-1.45425 -7.25313,-4.89533 -12.63105,-7.64685 -20.05933,-10.263 -36.89604,-21.51608 -47.73739,-31.90605 -7.30792,-7.00364 -8.18051,-8.82844 -4.83062,-10.10206 1.44607,-0.5498 11.42539,-1.47407 22.17626,-2.05395 35.07405,-1.89179 43.66773,-5.04806 62.5308,-22.96613 12.14379,-11.53541 20.48291,-24.43896 20.48291,-31.69425 0,-2.63154 -3.70707,-2.61674 -17.6,0.0702 -52.39405,10.13335 -121.57616,7.39818 -161.12227,-6.37009 -14.71602,-5.12349 -38.16992,-16.97735 -52.36448,-26.46557 -27.89937,-18.64902 -45.01191,-41.13816 -58.16037,-76.43375 -7.90907,-21.23104 -12.07191,-46.00055 -7.58578,-45.1366 1.00858,0.19423 4.70896,4.18943 8.22309,8.8782 16.40201,21.88465 49.07258,50.95334 75.10706,66.82663 20.4139,12.4464 55.61553,25.36864 69.23609,25.41601 6.56007,0.0228 5.86279,-2.18498 -2.66667,-8.44347 -11.16304,-8.19088 -21.57934,-22.51819 -33.18477,-45.64471 -5.53425,-11.02828 -16.50259,-41.52695 -15.5113,-43.13088 1.64907,-2.66826 7.66759,0.27608 27.6294,13.51665 29.10558,19.30558 57.94002,33.12442 81.36016,38.9917 8.08038,2.02432 11.2096,2.23951 25.78481,1.77319 14.97866,-0.47922 26.40922,-2.24535 28.5797,-4.41583 1.80297,-1.80297 -2.59948,-4.91293 -17.5028,-12.36422 -17.30586,-8.6525 -27.21875,-15.21187 -36.9986,-24.482 -13.41472,-12.71555 -11.9432,-15.31876 10.54842,-18.66084 12.36139,-1.83681 16.97617,-3.31215 27.2542,-8.71309 15.82067,-8.31353 36.04469,-32.22081 36.15069,-42.73454 0.0671,-6.65546 -6.45102,-7.07763 -23.74478,-1.53794 -18.31256,5.86602 -45.75325,8.66377 -84.92003,8.6581 -39.70959,-0.005 -58.93786,-2.46396 -83.71032,-10.70182 C 445.72441,397.941 417.92761,378.4198 404.42602,356.01775 392.16205,335.66916 382.64352,310.4 387.24249,310.4 c 2.3745,0 9.52252,4.40155 18.83089,11.59552 26.1912,20.24189 51.37721,32.42626 78.19328,37.82798 27.39236,5.51779 48.5991,2.34653 77.86666,-11.64422 13.31025,-6.36269 21.38954,-11.38299 23.33673,-14.50092 1.05649,-1.69171 0.8412,-2.13295 -1.46925,-3.01138 -1.48892,-0.56609 -9.59223,-1.49039 -18.00736,-2.05402 -18.58781,-1.24497 -27.50634,-3.89428 -44.15639,-13.117 -11.38533,-6.30651 -18.37039,-11.75693 -18.37039,-14.33434 0,-2.57374 4.38013,-3.67022 18.42769,-4.61299 32.17883,-2.15961 57.42631,-16.07092 81.21161,-44.74741 3.68048,-4.43733 7.58812,-9.4575 8.68363,-11.15593 l 1.99183,-3.08804 -5.29071,0.76944 c -2.9099,0.4232 -13.25243,2.65105 -22.98341,4.9508 -25.68992,6.07133 -42.44673,8.4357 -64.97398,9.16772 -38.86084,1.26279 -72.92018,-4.63563 -98.13333,-16.99477 -7.18694,-3.52296 -10.96689,-6.33163 -18.23224,-13.54741 -11.84405,-11.76321 -22.30109,-27.26539 -22.30109,-33.06053 0,-3.30494 3.34647,-2.814 21.02973,3.08512 20.80321,6.93995 27.03305,7.92939 45.49194,7.22521 16.29426,-0.6216 25.1547,-2.47785 38.91742,-8.15315 14.19363,-5.85298 33.22757,-18.39826 33.22757,-21.9003 0,-2.18748 -7.22862,-4.55511 -20.97917,-6.87142 -15.65969,-2.63791 -26.31389,-6.05749 -41.43224,-13.29811 C 422.91769,132.0695 387.83126,100.30158 371.5846,70.577311 364.31002,57.268017 358.18551,47.893717 357.0188,48.282618 c -0.64018,0.213395 -5.4196,7.797102 -10.62092,16.852685 -5.20132,9.055581 -12.88908,20.978846 -17.08389,26.496141 -13.87077,18.243706 -35.59353,38.230636 -52.66925,48.460486 -19.50245,11.68367 -57.3227,24.17473 -73.1959,24.17473 -12.64121,0 -12.08,5.15923 1.54072,14.16398 14.06435,9.29803 25.06656,14.35619 40.34377,18.54768 5.47966,1.50341 10.95889,1.89735 26.13333,1.87891 18.44634,-0.0224 19.70244,-0.16276 32,-3.57525 15.63171,-4.33771 25.99473,-6.46821 27.90202,-5.73632 5.71794,2.19417 -8.90662,23.74343 -24.77943,36.51246 -8.76933,7.05457 -24.71177,15.30715 -37.9631,19.65157 -14.08305,4.61709 -23.37146,5.49253 -57.95949,5.46276 -41.0514,-0.0353 -62.67893,-2.3714 -84.47698,-9.1247 -11.64417,-3.6075 -19.97626,-4.96991 -20.93246,-3.42275 -2.17931,3.5262 15.24218,24.1199 31.11245,36.7776 9.00065,7.17866 24.21521,14.84619 34.29699,17.28429 6.08136,1.47067 16.19415,2.81151 41.41658,5.49138 l 6.7499,0.71718 -9.9499,7.35824 c -11.54284,8.53625 -25.97374,16.07977 -36.61658,19.14071 -4.1631,1.19732 -13.43139,2.55807 -20.94806,3.07551 -12.73756,0.87687 -17.98527,2.12736 -17.98527,4.28577 0,2.21025 6.00468,7.77786 13.27675,12.31034 17.92486,11.17207 37.92885,16.53397 61.68441,16.53397 36.73188,0 69.57499,-12.50861 99.38413,-37.85141 9.24511,-7.85989 17.88635,-13.81309 21.65996,-14.92212 5.64304,-1.65847 4.29966,3.4977 -7.30036,28.02017 -8.14826,17.22544 -14.45677,26.52097 -25.49631,37.5686 -20.45043,20.46542 -48.52524,34.2698 -86.17466,42.37206 -13.33515,2.86975 -14.20595,2.91947 -50.90059,2.9063 -49.10871,-0.0176 -72.331832,-2.41424 -102.784588,-10.60733 -12.769146,-3.43543 -15.082073,-3.46747 -15.082073,-0.20885 0,3.57297 8.447758,20.24173 14.795447,29.19375 5.756031,8.11761 10.218392,11.73508 21.471219,17.40592 10.181605,5.13099 20.773346,8.50177 30.164795,9.59979 4.56398,0.53362 9.60398,1.59412 11.2,2.35665 5.91757,2.82728 3.8612,9.01778 -6.28243,18.91264 -8.45439,8.24705 -17.622609,14.26887 -34.815698,22.86743 -8.499485,4.25074 -14.133333,7.69216 -14.133333,8.63331 0,4.04809 13.754625,7.32234 30.933332,7.36358 C 101.68,525.2267 110.08,524.61319 113.6,523.84715 c 21.63462,-4.70817 45.69177,-15.44805 74.72745,-33.36071 32.18318,-19.85441 35.67254,-21.45526 35.67254,-16.36588 0,3.92364 -5.94593,21.80739 -11.75726,35.36271 -7.53994,17.58736 -15.1758,28.83208 -31.75676,46.76557 -4.87273,5.27021 -8.38075,9.74178 -7.79561,9.93682 0.58515,0.19505 6.24919,-0.36654 12.58677,-1.24798 25.78427,-3.5861 47.90939,-13.66955 75.93643,-34.60777 19.32968,-14.44068 54.96725,-50.15278 63.79649,-63.92992 1.97386,-3.08 4.05408,-5.6 4.62272,-5.6 2.09393,0 0.93538,10.95742 -2.61729,24.75411 -6.84264,26.57321 -15.18572,46.32618 -27.389,64.84589 -8.78446,13.33128 -26.01552,30.56492 -39.35982,39.36569 -21.34363,14.07646 -49.44473,25.14918 -78.57759,30.96205 -25.25327,5.03878 -35.61224,5.94549 -67.02241,5.86642 -29.81233,-0.0751 -43.626118,-1.27297 -66.991215,-5.80949 -5.981495,-1.16136 -12.495446,-2.11301 -14.475446,-2.11478 -3.486655,-0.003 -3.579157,0.10592 -2.93802,3.46344 1.175335,6.15502 8.921633,20.36697 14.501103,26.60483 6.339349,7.08741 17.470659,14.7935 26.908381,18.62839 12.047107,4.89517 21.880363,6.77231 41.313257,7.88656 19.65945,1.12726 23.54861,1.67915 23.54861,3.34171 0,2.18959 -12.7683,14.37944 -23.27651,22.222 -6.05541,4.51932 -17.016527,11.52434 -24.358024,15.56672 -7.341497,4.04238 -15.107067,8.90486 -17.25682,10.80549 l -3.908644,3.45571 2.29308,1.96202 c 4.883772,4.1787 29.253287,9.79323 42.506918,9.79323 16.6226,0 44.67701,-8.05889 68.47122,-19.669 7.51417,-3.66645 21.47808,-11.57137 31.03092,-17.56649 16.50571,-10.35856 23.14977,-13.80148 24.33891,-12.61234 0.9303,0.9303 -3.78179,13.5054 -8.83621,23.58112 -11.36132,22.64821 -26.33548,45.28356 -40.30976,60.93338 -14.24898,15.95746 -15.32546,18.33939 -7.76175,17.17444 2.49334,-0.38402 9.2546,-2.15216 15.02504,-3.92921 z"
       id="path1938" />
    <path
       style="fill:#803300;stroke-width:1.06667"
       d="m 391.99999,852.56518 3.2,-1.01643 -0.18016,-12.17438 c -0.0991,-6.69592 -1.42166,-23.21439 -2.93906,-36.70772 -1.5174,-13.49334 -3.91815,-37.73334 -5.33503,-53.86667 -2.16314,-24.63068 -3.00954,-30.50839 -5.27956,-36.66292 -1.48689,-4.03128 -3.3721,-8.11128 -4.18935,-9.06667 -0.81724,-0.95539 -1.77307,-2.54911 -2.12405,-3.54159 -0.35098,-0.99249 -1.98394,-2.66866 -3.6288,-3.72483 -1.64486,-1.05618 -3.92116,-2.76415 -5.05845,-3.79549 -4.68666,-4.25006 -11.76055,-1.02116 -18.17871,8.29772 -2.26706,3.29167 -6.61326,8.22937 -9.65823,10.97265 -3.04497,2.74329 -6.03078,5.9478 -6.63516,7.12113 -0.60436,1.17333 -1.42634,7.41333 -1.82662,13.86667 -1.45187,23.40726 -4.86921,61.16876 -6.99849,77.33333 -1.19782,9.09333 -2.47238,22.3862 -2.83235,29.5397 l -0.65449,13.00638 2.55925,0.55209 c 1.40759,0.30365 3.51926,0.78165 4.6926,1.0622 3.8237,0.91429 61.77689,-0.15021 65.06666,-1.19517 z"
       id="path1936" />
  </g>
</svg>
